<?xml version="1.0" encoding="UTF-8" standalone="no"?>
<!DOCTYPE svg PUBLIC "-//W3C//DTD SVG 1.1//EN" "http://www.w3.org/Graphics/SVG/1.1/DTD/svg11.dtd">
<svg width="100%" height="100%" viewBox="0 0 8334 8334" version="1.1" xmlns="http://www.w3.org/2000/svg" xmlns:xlink="http://www.w3.org/1999/xlink" xml:space="preserve" xmlns:serif="http://www.serif.com/" style="fill-rule:evenodd;clip-rule:evenodd;stroke-linejoin:round;stroke-miterlimit:2;">
    <g id="Hufflepuff-Color" serif:id="Hufflepuff Color" transform="matrix(11.8311,0,0,11.8311,-2293.84,-9434.84)">
        <g id="Grey" transform="matrix(0.954776,0,0,0.954776,-202.475,344.396)">
            <path d="M992.557,561.198L922.936,536.573C916.094,544.665 912.838,544.038 910.764,534.002C891.769,529.284 873.108,526.512 851.65,523.561L855.925,510.199C821.45,523.076 798.852,513.052 785.751,484.715C768.744,509.945 744.527,520.187 712.621,514.446L717.504,526.326C704.172,526.473 691.155,528.827 678.704,535.141C646.915,538.768 610.9,552.135 576.002,568.12C595.444,603.51 590.982,634.479 548.689,643.137C555.22,656.25 559.977,669.233 563.493,682.125C568.886,681.833 570.921,685.148 564.775,691.293C572.018,735.619 573.159,775.616 573.555,815.004C565.372,821.225 562.141,830.473 560.232,838.386C547.869,842.076 536.815,840.094 525.68,839.404C527.248,864.678 532.194,996.642 528.534,1016.14C542.509,1017.72 556.535,1019.15 571.583,1017.79C576.859,1075.82 607.15,1110.8 662.603,1122.58C720.541,1134.88 773.293,1153.38 791.129,1200.88C811.649,1163.38 848.262,1136.03 907.517,1124.52C909.682,1116.09 910.515,1116.45 918.724,1121.39C976.764,1104.46 1005.61,1069.27 1003.59,1014.78C999.477,1010.96 999.196,1006.88 1004.95,1002.39C998.503,968.324 996.204,933.772 998.859,898.644C1014.85,904.003 1019.81,914.245 1012.16,951.317C1005.75,982.36 1052.13,981.283 1057.85,953.797C1060.62,940.489 1054.15,916.822 1048.71,888.399C1044.15,864.582 1052.4,837.626 1063.52,813.081C1059.4,788.552 1032.91,771.936 1004.19,758.081L1002.69,743.769C996.66,741.622 998.563,738.779 1003.18,734.502C1006.38,706.576 1015.32,671.985 1025.08,635.713C975.265,634.271 974.911,586.49 992.557,561.198Z" style="fill:rgb(47,49,61);"/>
        </g>
        <g id="Light-Yellow" serif:id="Light Yellow" transform="matrix(0.345253,0,0,0.345253,26.3408,780.564)">
            <path d="M2093.76,844.519C2003.82,822.962 1926.78,829.351 1857.41,843.737C1831.66,869.486 1839.95,868.896 1814.54,855.702C1758.56,863.358 1698.18,877.56 1645.27,892.447C1503.46,935.897 1366.16,985.41 1233.43,1041.06C1151.24,1075.85 1108.97,1100.66 1128.93,1109.94C1183.55,1086.01 1226.91,1066.42 1263.37,1060.39C1187.49,1088.43 1145.63,1110.7 1132.24,1128.13C1170.21,1110.07 1201.25,1099.81 1221.81,1101.38C1170.43,1121.66 1128.27,1141.56 1130.53,1159.59C1155.43,1149.68 1174.74,1141.5 1192.47,1140.84C1169.01,1151.74 1146.43,1162.88 1125.2,1174.38C1123.44,1232.7 1125.94,1284.78 1133.06,1330.08C1119.25,1340.58 1118.52,1348.86 1149.44,1341.76C1130.19,1354.22 1118.31,1366.87 1132.54,1371.7C1169.69,1361.18 1192.96,1351.42 1190.25,1357.72C1154.27,1371.62 1126.52,1384.45 1136.35,1392.37C1188.11,1372.84 1220.65,1359.79 1219.53,1368.08C1168.49,1386.55 1128.65,1402.97 1139.98,1410.05C1164.49,1402.5 1181.95,1395.53 1176.86,1405.16C1144.15,1413.02 1129.78,1421.55 1135.55,1430.81C1149.13,1427.7 1166.02,1421.65 1171.56,1423.99C1148.97,1435.86 1125,1451.34 1132.36,1458.69L1509.29,1316.9C1555.93,1302.78 1605,1289.77 1656.94,1279.22C1673.5,1267.33 1693,1260.04 1715.84,1257.98C1747.61,1257.54 1761.49,1249.86 1764.7,1230.8C1767.02,1240.96 1777.44,1242.23 1792.64,1238.27C1839.57,1226.52 1887.32,1216.43 1936.84,1209.97C2073.76,1188.91 2162.92,1208.56 2237.77,1284.96C2226.35,1241.93 2179.02,1210.5 2121.61,1182.32C2160.12,1189.28 2195.94,1203.72 2228.89,1226.14C2218.62,1197.85 2188.47,1175.05 2155.74,1150.22C2184.71,1157.07 2206.37,1169.92 2226.01,1184.43C2208.36,1159.13 2178.18,1132.98 2143.49,1106.52C2178.06,1117.94 2204.84,1136.51 2226.28,1159.98C2216.96,1138.18 2198.52,1116.95 2178.09,1095.84L2223.55,1123.33C2217.55,1105.2 2205.75,1093.87 2186.61,1075.03L2226.33,1097.17L2204.42,1047.57L2232.39,1067.38C2233.74,1048.08 2226.57,1025.91 2214.85,1002.2L2243.46,1031.51C2240.76,1002.81 2225.13,971.806 2199.44,939.019C2219.27,951.909 2235.4,967.387 2248.88,984.725C2228.73,906.229 2173.03,863.518 2093.76,844.519ZM2211.29,1309.03C2202.26,1267.26 2184.47,1243.68 2152.75,1260.03C2152.67,1267.93 2165.55,1262.94 2178.43,1265.74C2170.97,1269.82 2161.69,1271.25 2159.76,1279.51C2160.22,1288.65 2159.56,1287.41 2171.91,1277.65C2178.99,1275.83 2185,1275.84 2187.62,1280.52C2180.67,1286.44 2172.5,1291.42 2163.22,1295.54C2155.24,1306.93 2157.59,1308.45 2172.07,1302.23C2184.29,1296.99 2200.06,1302.42 2211.29,1309.03ZM2187.42,1313.72C2193.3,1312.29 2233.72,1329.17 2189.52,1368.4C2186.65,1352.81 2186.41,1334.03 2187.42,1313.72ZM2162.94,1335.21C2167.66,1336.39 2172.19,1336.41 2176.51,1335.15C2180.83,1329.45 2178.49,1324.84 2170.02,1321.6C2166.95,1327.03 2163.86,1330.8 2162.94,1335.21ZM2154.93,1341.02C2162.75,1341.96 2170.63,1343.88 2178.63,1349.77C2179.08,1367.49 2170.6,1367.98 2152.75,1349.15C2151.49,1345.46 2152.42,1342.85 2154.93,1341.02ZM2174.02,1382.31C2176.91,1388.13 2221.74,1364.91 2251.07,1349.96C2245.34,1363.31 2233.47,1377.84 2217.69,1384.69C2205.82,1389.85 2195.03,1393.12 2188.39,1398.8C2198.2,1401.71 2210.55,1401.47 2217.41,1396.22C2229.63,1386.86 2236.61,1381.44 2234.03,1390.69C2229.2,1407.98 2213.19,1414.4 2183.7,1413.18C2161.71,1412.27 2154.73,1407.9 2156.38,1397.86C2178.39,1399.87 2178.45,1392.98 2168.09,1390.39C2154.63,1387.03 2141.66,1383.9 2145.89,1368.4C2158.25,1364.36 2167.53,1369.27 2174.02,1382.31ZM2244.9,1323.39C2231.79,1326.04 2219.98,1331.7 2215.35,1353.94C2228.52,1355.7 2237.43,1342.15 2244.9,1323.39Z" style="fill:rgb(242,222,141);"/>
        </g>
        <g id="Yellow" transform="matrix(0.345253,0,0,0.345253,26.3408,780.564)">
            <path d="M1893.81,1587.5L1947.71,1646.24C1962.3,1627.53 1969.49,1600.49 1972.69,1572.93C1939.32,1571.47 1908.6,1574.62 1893.81,1587.5ZM1808.04,1708.73C1833.16,1706.28 1858.38,1701.41 1874.62,1688.48L1820.99,1622.79C1797.1,1620.42 1774.41,1626.87 1755.69,1636.85L1808.04,1708.73ZM1727.48,1734.71L1662.35,1643.72C1587.57,1643.4 1582.67,1611.74 1617.09,1576.2C1591.06,1536.57 1562.94,1524.67 1545.99,1563.37C1582.91,1623.6 1624.38,1684.09 1675.97,1745.15L1727.48,1734.71ZM1525.78,1675.03C1560.4,1728.49 1633.25,1775.01 1581.66,1795.77L1555.47,1808.07C1530.91,1783.12 1522.44,1734.98 1525.78,1675.03ZM1508.6,1585.74L1520.3,1832.77C1462.68,1796.43 1395.8,1751.55 1374.25,1766.52C1370.49,1750.77 1325.72,1741.3 1307.29,1739.8C1304.72,1728.75 1289.97,1725.54 1278.44,1732.4C1268.98,1722.9 1267.72,1709.93 1246.2,1723.26C1237.53,1711.72 1232.36,1698.43 1221.27,1697.01C1214.98,1696.2 1216.08,1706.76 1209.69,1706.64C1201.51,1706.5 1203.23,1698.54 1200.74,1685.93C1198.37,1673.99 1185.06,1675.75 1182.08,1696.1C1113.28,1687.34 1065.27,1614.51 1067.81,1540.84C1083.93,1535.07 1103.5,1529.19 1129.29,1523.12L1130.03,1478.29L1181.09,1458.99C1183.92,1460.3 1184.57,1462.94 1184.57,1465.33C1184.59,1499.04 1203.7,1491.6 1196.84,1460.31C1196.37,1458.14 1196.12,1454.8 1197.42,1452.1C1219.94,1446.24 1238.9,1450.29 1249.71,1423.9C1267.24,1429.32 1283.71,1422.51 1299.74,1410.54C1310.79,1412.31 1314.03,1419.22 1313.71,1443.71C1313.44,1464.26 1337.13,1465.71 1329.42,1440.3C1325.03,1425.84 1324.59,1414.48 1331.44,1406.43C1338.28,1436.58 1350.12,1465.88 1369.63,1490.37C1351.05,1516.5 1319.38,1534.8 1291.63,1555.98C1281.7,1563.56 1260.45,1589.09 1259.94,1598.32C1258.19,1630.36 1262.5,1642.79 1293.52,1651.06C1330.57,1660.26 1386.94,1652.6 1460.93,1630.69C1475.22,1606.91 1489.85,1585.01 1508.6,1585.74ZM1953.15,1297.14L1948.03,1228.27L1906.8,1228.65C1920.87,1254.58 1935.73,1278.74 1953.15,1297.14ZM1891.69,1397.48C1928.76,1385.38 1884.74,1313.9 1863.45,1324.48C1876.69,1342.15 1885.94,1366.77 1891.69,1397.48ZM1556.53,343.439C1576.85,340.815 1602.27,344.167 1627.47,350.018C1640.42,350.018 1641.21,327.369 1652.57,333.594C1660.03,337.678 1659.69,339.21 1661.26,352.721C1662.87,366.556 1677.6,358.401 1682.45,333.547C1717.17,334.391 1752.91,342.537 1815.67,360.953C1810.17,399.024 1830.12,395.96 1839.14,364.155C1865.67,369.63 1895.81,382.555 1926.83,398.873C1921.39,501.831 1947.52,565.988 2003.25,593.767C1984.83,699.363 1952.85,759.417 1987.51,750.159C1974.62,768.154 1971.47,790.361 1971.63,814.004C1935.48,819.037 1952.53,799.303 1937.48,784.253C1929.37,787.687 1927.45,802.593 1925.28,816.844C1887.05,820.187 1852.48,825.952 1832.8,850.667C1821.59,835.868 1786.26,843.853 1742.59,854.619C1725.57,822.375 1699.54,789.612 1667.67,762.626C1623.31,724.259 1579.46,697.553 1524.45,675.192C1515.99,565.398 1518.29,454.2 1521.39,342.897L1529.83,340.986C1543.98,375.778 1545.94,360.782 1556.53,343.439ZM1476.43,344.105C1486.92,353.86 1493.16,364.242 1501.39,380.425L1503.48,450.831C1475.2,417.205 1448.02,382.446 1422.24,346.232L1476.43,344.105ZM1321.26,345.832C1378.24,434.912 1436.71,521.751 1502.34,597.792L1504.27,655.525C1490.49,658.036 1472.01,645.47 1470.01,623.661C1467.01,590.761 1442.43,576.772 1415.49,559.994C1418.06,514.352 1394.72,482.57 1366.01,453.666C1354.04,460.089 1344.65,468.827 1338.31,480.293C1306.7,446.546 1275.62,404.546 1252.89,357.555C1272.42,351.395 1297.33,348.629 1321.26,345.832ZM1154.57,382.752C1196.88,430.121 1235.71,480.825 1268.62,537.184L1215.99,556.431C1177.88,511.13 1140.9,457.51 1101.67,396.975C1120.63,396.491 1136.9,391.171 1154.57,382.752ZM1091.22,526.874C1086.01,561.567 1084.73,599.195 1087.45,633.703C1072.81,617.238 1060.1,599.054 1049.15,579.303L1079,522.821L1091.22,526.874ZM1056.93,745.763L1156.88,873.455L1129.58,926.89C1074.15,876.903 1052.38,846.387 1056.93,745.763ZM805.223,1074.54L875.387,1074.85C905.956,1078.82 898.012,1108.28 923.327,1073.24C930.468,1063.36 936.696,1073.32 941.623,1088.16C944.18,1095.87 955.228,1082.58 964.412,1071.92C970.887,1064.4 977.388,1073.05 982.79,1086.72C985.546,1093.69 996.422,1078.37 1007.61,1066.68C1016.67,1057.22 1022.49,1063.73 1027.85,1080.03C1031.01,1089.62 1046.68,1068.36 1076.52,1050.51C1087.46,1043.97 1098.57,1039.92 1108.74,1039.7L1111.01,1505.26C1032.21,1544.57 934.573,1554.33 814.937,1529.56C824.515,1488.28 822.97,1442.33 814.738,1393.57L808.485,1187.64L805.223,1074.54Z" style="fill:rgb(248,201,53);"/>
        </g>
        <g id="Light-Grey" serif:id="Light Grey" transform="matrix(0.345253,0,0,0.345253,26.3408,780.564)">
            <path d="M1452.74,859.263C1446.95,848.627 1445.01,840.546 1447.72,835.546C1455.47,844.705 1461.88,848.081 1467.36,847.5C1447.43,823.813 1480,828.124 1493.65,822.827C1495.08,809.757 1506.2,802.765 1523.47,799.639C1539.99,780.177 1554.53,756.541 1548.37,748.647C1534.3,730.61 1522.32,725.915 1518.36,711.684C1534.4,716.637 1558.72,726.922 1560.13,736.578C1562.05,749.784 1570.47,760.385 1580.69,770.269C1579.04,778.082 1579.07,785.715 1583.48,792.876C1599.28,839.09 1628.41,841.605 1616.54,827.489C1599.52,807.264 1592.57,793.512 1600.33,789.223C1595.05,776.861 1586.43,764.947 1575.23,753.377C1579.74,751.263 1584.46,751.433 1589.38,753.888C1566.45,724.149 1534.73,704.685 1501.33,687.183C1582.79,706.882 1660.37,752.557 1717.9,839.482C1718.69,862.277 1665.66,789.653 1608.8,744.311C1639.02,775.908 1668.78,807.811 1689.11,845.79C1668.39,820.877 1648.05,802.124 1627.96,787.287C1646.3,807.168 1663.17,827.831 1671.68,852.957C1661.36,840.555 1648.73,831.09 1634.19,824.059C1645.14,836.716 1653.92,850.064 1655.4,865.741C1649.32,858.824 1641.63,852.596 1630.75,847.734C1638.49,857.233 1642.93,866.677 1640.87,876.013C1622.54,880.47 1603.7,883.445 1584.57,885.593C1573.77,884.158 1565.93,879.891 1559.23,874.538L1559.21,887.212C1544.63,879.322 1529.49,866.546 1514.26,853.072C1521.96,867.91 1535.6,881.691 1547.74,893.716C1540.77,896.324 1532.36,894.567 1522.63,888.838C1523.66,895.754 1528.63,902.86 1533.8,906.332C1514.02,907.635 1485.36,893.034 1466.65,873.074C1456.91,890.169 1430.51,864.256 1423.96,841.11C1420.75,829.787 1426.39,826.372 1433.48,833.104C1440.14,839.428 1438.88,854.423 1452.74,859.263ZM1354.08,963.042C1351.7,969.198 1361.38,971.855 1365.27,963.355C1368.62,956.043 1373.6,949.135 1376.71,954.648C1376.65,963.322 1377.46,968.277 1386.01,965.029C1428.32,948.951 1486.58,931.857 1476.12,922.217C1464.48,922.884 1452.41,922.384 1445.27,917.281C1479.99,916.843 1481.85,886.728 1465.33,894.837C1451.56,901.594 1445.25,904.275 1432.73,903.454C1442.54,897.937 1451.09,892.229 1446.85,884.574C1436.68,883.418 1428.14,888.002 1419.93,893.778C1425.29,885.363 1431.04,876.823 1425.13,869.234C1407.18,859.022 1386.53,860.425 1365.52,863.357C1358.74,876.36 1350.63,873.76 1329.09,867.432C1300.14,884.347 1285.25,902.08 1275.38,918.11C1295.4,915.522 1288.5,922.14 1271.25,932.291C1280.59,936.156 1286.86,941.323 1286.42,948.876C1300.73,934.976 1321.61,925.308 1317.78,943.632C1313.74,962.909 1317.16,991.028 1334.95,949.38C1340.06,937.417 1362.49,941.251 1354.08,963.042ZM928.333,1020.47C918.056,1027.2 908.934,1036.69 901.275,1044.84C901.927,1035.5 910.257,1026.73 918.459,1021.62L909.121,1024.36C912.775,1016.32 918.217,1011.65 925.14,1009.78C940.595,1007.55 951.041,1003.12 961.429,994.23C973.745,979.864 978.831,976.255 988.174,979.862C1007.3,986.133 1010.84,985.713 1019.89,981.306C1057.18,971.801 1089.39,976.767 1119.38,988.046C1146.34,1002.31 1170.78,1019.17 1192.92,1038.39C1183.26,1046.22 1170.19,1040.96 1155.5,1029.48C1159.39,1037.7 1161.5,1045.13 1160.6,1051.21C1154.54,1039.72 1149.04,1048.19 1140.83,1062.38C1126.8,1074.11 1124.92,1068.12 1125.25,1027.53C1125.44,1003.97 1104.52,1000.26 1084.2,1027.42C1079.33,1033.93 1075.38,1028.24 1065.64,1018.35C1056.25,1008.83 1045.96,1022.2 1036.18,1037.2C1030.06,1046.59 1029.16,1043.88 1032.11,1022.47C1018.17,1008.26 999.063,1018.22 986.96,1040.09C984.965,1025.89 978.803,1011.73 970.835,1012.63C959.691,1013.89 952.99,1021.56 945.489,1036.11C941.713,1025.62 935.105,1016.03 928.333,1020.47ZM1390.7,1383.99C1452.54,1361.4 1513.45,1313.45 1531.01,1348.07C1523.36,1313.47 1580.06,1304.16 1688.86,1279.21C1707.6,1298.21 1724.43,1315.32 1739.23,1330.46C1728.51,1312.62 1720.3,1290 1722.9,1267.88C1731.1,1264.7 1742.32,1271.08 1752.84,1282.41C1752.35,1278.29 1750.82,1273.21 1748.42,1267.34C1754.79,1271.55 1760.19,1275.88 1764.86,1280.31C1764.24,1275.12 1762.24,1269.84 1758.58,1264.46C1764.94,1269.85 1771.03,1275.84 1776.53,1283.13C1776.99,1276.92 1774.77,1269.42 1770.71,1261.06C1783.25,1273.94 1794.85,1286.66 1804.21,1298.98C1802.19,1288.6 1797.34,1276.6 1791.46,1264.02C1807.51,1281.91 1821.68,1300.52 1830.77,1321.05C1830.93,1304.77 1819.99,1286.37 1808.87,1267.38C1808.71,1253.05 1841.31,1283.54 1860.42,1314.24C1853.25,1305.83 1845.65,1299.65 1837.58,1295.93C1866.84,1341.27 1879.1,1394.1 1874.78,1454.22C1874.37,1459.9 1869.81,1458.88 1869.87,1452.47L1867.76,1433.33C1865.25,1396.19 1860.33,1361.72 1847.37,1346.38C1854.29,1374.46 1855.13,1401.64 1854.98,1427.69C1852.81,1416.31 1849.49,1404.01 1842.26,1391.76C1841.9,1428.76 1851.55,1456.06 1866.42,1483.05C1869.87,1489.3 1872.21,1496.57 1869.73,1501.49C1865.38,1497.6 1862.15,1490.89 1859.65,1482.38C1855.78,1504.19 1858.2,1546.76 1866.31,1545.94C1878.49,1544.72 1881.78,1503.43 1880.15,1462.76C1884.95,1445.45 1896.2,1431.05 1907.04,1416.16C1904.86,1406.47 1905.29,1396.94 1911.45,1387.76C1916.89,1388.94 1917.24,1396.05 1918.35,1404.13C1937.23,1389.36 1934.46,1333.34 1957.06,1344.26C1973.04,1351.98 1941.28,1401.11 1916.19,1432.7C1927.04,1432.46 1938.57,1417.94 1956.3,1394.46C1963.14,1385.4 1981.71,1402.66 1955.31,1419.54C1934.73,1433.78 1919.33,1448.29 1908.82,1465.93C1929.38,1449.01 1947.5,1436.76 1967.61,1430.01C1981.31,1430.01 1946.83,1458.18 1924.98,1472.92C1939.48,1472 1947.91,1463.02 1963.44,1458.7C1988.26,1451.8 1957.59,1497.95 1925.47,1512.83C1939.55,1510.8 1947.76,1504.7 1966.79,1497.08C1983.55,1490.38 1978.98,1518.53 1961.87,1538.05C1955.34,1533.14 1953.25,1527.1 1960.91,1518.55C1952.02,1517.63 1946.6,1528.95 1938.38,1542.9C1935.86,1536.13 1935.61,1531.03 1941.93,1519.71C1930.54,1520.64 1916.11,1541.35 1903.36,1557.96C1903.37,1549.28 1906.67,1539.25 1913.27,1527.89C1895.81,1547.78 1878.98,1564.94 1866.63,1563.02C1861.73,1568.88 1863.72,1574.7 1868.35,1580.49C1853.52,1575.95 1841.09,1591.99 1825.98,1608.12C1814.15,1620.76 1808.7,1605.34 1822.97,1591.56C1807.61,1584.81 1784.63,1604.23 1762.42,1616.94C1756.77,1620.18 1759.42,1602.24 1748.65,1604C1738.76,1605.62 1733.65,1608.77 1721.88,1619.09C1712.46,1627.35 1711.88,1623.58 1710.34,1608.46C1708.15,1587.04 1699.26,1595.84 1677.24,1614.43C1664.68,1625.04 1666.2,1613.42 1676.68,1595.41C1685.22,1580.74 1659.69,1585.1 1642.54,1612.03C1635.39,1623.26 1626.1,1615.29 1638.28,1597.98C1648.67,1583.21 1635.82,1579.37 1622.14,1584.05C1628.99,1574 1642.51,1571.73 1673.7,1567.3C1687.61,1565.32 1689.63,1558.58 1682.36,1547.96C1673.87,1535.58 1708.25,1542.52 1744.84,1533.47C1741.72,1517.31 1710.07,1493.09 1678.63,1457.52C1677.83,1480.92 1688.81,1495.06 1713.01,1512.68C1724.99,1521.41 1705.77,1537.58 1693.97,1518.11L1681.29,1499.19C1678.42,1510.83 1680.02,1519.29 1688.48,1528.21C1691.47,1547.15 1669.64,1518.7 1663.5,1514.87C1668.97,1522.53 1670.45,1531.27 1668.11,1541.03C1665.97,1550.01 1648.53,1531.83 1640.26,1521.37C1642.65,1530.63 1642.84,1538.96 1640.39,1546.17C1627.76,1538.18 1613.49,1522.17 1600.37,1509.26C1604.45,1517.72 1606.66,1525.4 1605.35,1531.6C1597.24,1517.25 1585.8,1506.37 1570.7,1499.3C1579.47,1508.07 1586.61,1519.78 1587.55,1528.1C1562.68,1507.34 1544.18,1488.04 1527.46,1489.31C1550.02,1510.54 1566.4,1521.83 1548.58,1538.58C1517.97,1567.36 1472.95,1575.42 1458.33,1616.79C1441.85,1613.5 1420.65,1618.18 1398.21,1627.75C1403.42,1585.95 1392.69,1584.76 1365.03,1622.57C1359.73,1629.82 1354.03,1624.09 1361.13,1607.72C1370.91,1585.2 1344.89,1589.12 1331.77,1609.52C1326.93,1617.03 1318.08,1615.24 1327.83,1599.48C1337.4,1589.9 1315.36,1581 1300.78,1602.45C1294.95,1611.01 1287.44,1604.8 1298.4,1595.9C1304.74,1590.76 1297.19,1584.84 1285.11,1582.44C1272.91,1580.02 1285.14,1570.17 1314.73,1560.85L1348.61,1552.08C1350.15,1531.21 1361.49,1510.36 1389.11,1496.96C1372.33,1468.39 1356.25,1438.59 1348.78,1404.27C1351.98,1397.95 1357.79,1396.57 1364.03,1396.04C1370.11,1404.73 1369.59,1416.09 1367.7,1428.01C1373.81,1420.67 1379.61,1408.94 1379.9,1398.44L1383.97,1416.3C1390.97,1406.28 1394.98,1392.41 1390.7,1383.99ZM1324.19,173.178C1391.45,180.355 1457.04,170.552 1506.54,102.388C1537.5,153.785 1583.73,192.546 1685.05,168.47C1664.19,221.322 1641.74,273.927 1629.37,329.31C1550.09,318.234 1470.79,319.222 1390.93,337.239L1324.19,173.178Z" style="fill:rgb(83,85,100);"/>
        </g>
        <g id="White" transform="matrix(0.345253,0,0,0.345253,26.3408,780.564)">
            <path d="M1632.69,1588.01C1612.34,1587.5 1606.01,1611.74 1612.26,1615.44C1613.74,1616.32 1644.87,1588.31 1632.69,1588.01ZM1650.33,1624.23C1659.2,1613.99 1676.37,1596.99 1668.75,1595.06C1658.81,1592.53 1647.33,1611.28 1650.33,1624.23ZM1701.04,1605.2C1692.98,1598.5 1681.69,1620.33 1681.05,1635.34C1693.86,1626.88 1707.86,1610.87 1701.04,1605.2ZM1747.29,1610.92C1738.83,1603.69 1722.39,1629.18 1723.61,1643.48C1733.42,1634.55 1752.72,1615.58 1747.29,1610.92ZM1267.2,942.381C1255.69,939.363 1241.72,980.988 1252.39,1004.67C1263.98,982.054 1281.12,946.029 1267.2,942.381ZM1304.09,947.195C1285.22,948.635 1282.66,973.633 1293.87,989.236C1299.85,974.634 1311.79,946.608 1304.09,947.195ZM1346.5,953.721C1338.29,952.098 1328.13,976.713 1330.9,988.823C1340.57,978.342 1356.14,955.626 1346.5,953.721ZM905.164,1082.86C899.235,1063.98 915.063,1027.57 930.982,1029.64C947.35,1031.77 919.799,1066.53 905.164,1082.86ZM966.83,1023.2C982.79,1023.39 961.923,1060.46 946.468,1080.05C945.937,1058.95 954.868,1023.06 966.83,1023.2ZM987.967,1074.18C988.299,1052.93 998.09,1021.46 1016.79,1024.04C1034.22,1026.45 1006.42,1055.47 987.967,1074.18ZM1059.27,1027.15C1075.46,1031.59 1053.23,1053.23 1033.77,1070.3C1035.03,1055.01 1049.04,1024.35 1059.27,1027.15ZM1370.38,1644.28C1385.08,1629.98 1397.99,1607.71 1392.49,1603.98C1383.43,1597.83 1366.71,1629.28 1370.38,1644.28ZM1327.92,1639.63C1326.96,1624.32 1345.74,1591.96 1355.04,1599.52C1361.61,1604.86 1339.31,1631.36 1327.92,1639.63ZM1319.78,1595.83C1327.39,1599.22 1306.64,1624.47 1296.48,1638.23C1290.32,1620.29 1308.3,1590.71 1319.78,1595.83ZM1266.89,1616.89C1266.5,1601.22 1283.88,1579.82 1292.28,1591.76C1294.33,1594.66 1271.64,1617.97 1266.89,1616.89ZM1237.87,646.566C1233.72,690.163 1243.62,722.244 1266.71,743.527C1211.31,731.596 1230.99,784.104 1255.56,812.916L1257.81,801.872C1267.27,813.144 1278.78,826.205 1291.31,836.081C1313.31,829.993 1334.75,831.868 1354.98,850.45C1377.92,835.208 1409.15,826.04 1401.65,818.425C1363.62,807.625 1345.82,791.098 1359.94,792.713C1369.73,793.831 1376.53,799.705 1385.87,803.701C1402.87,810.977 1422.6,816.046 1435.23,810.582C1423.12,802.495 1412.55,789.984 1411.63,780.058C1409.85,760.58 1409.23,752.295 1396.61,756.736C1373.4,764.907 1351.18,761.309 1336,749.455C1321.77,738.342 1327.92,729.395 1335.79,736.342C1345.82,745.197 1351.48,749.185 1359.31,748.427C1334.95,717.875 1330.36,722.153 1302.76,722.186C1296.05,713.389 1294.27,706.119 1295.07,699.651C1310.7,708.556 1325.41,716.216 1345.26,714.502C1362.69,712.098 1359.03,694.967 1350.42,698.826C1327.16,709.243 1318.32,708.033 1302.37,692.899C1321.22,661.189 1330.51,672.652 1353.5,692.691C1366.72,698.43 1359.58,685.68 1343.86,666.729C1319.38,646.73 1313.55,677.168 1285.3,689.957C1259.31,701.724 1266.52,667.148 1297.7,655.597C1292,662.234 1285.06,671.619 1284.96,677.456C1295.86,673.672 1307.21,662.489 1310.52,647.834C1311.53,643.346 1319.9,643.6 1326.12,650.234C1331.63,656.124 1343.6,659.052 1351.79,657.566C1336.06,632.437 1286.83,616.257 1235.04,605.606C1217.28,601.954 1206.05,602.981 1186.4,604.307C1190.42,609.883 1196.57,613.624 1203.82,617.992C1165.73,622.392 1143.89,617.033 1144.27,598.327C1157.7,610.195 1177.83,604.295 1160.48,590.29C1142.08,573.173 1122.74,560.914 1101.38,558.85C1096.67,614.723 1098.56,667.467 1135.36,703.622C1136.51,686.174 1144.68,688.302 1145.87,715.499C1166.13,698.696 1183.11,673.746 1196.89,647.065C1208.36,651.367 1221.78,651.688 1237.87,646.566ZM1453.34,694.169C1499.42,746.174 1508.32,743.703 1515.05,734.601C1475.04,709.488 1436.16,670.904 1397.88,625.388C1367.98,595.705 1335.65,583.156 1301.91,580.435C1301.25,587.694 1305.95,591.278 1318.14,589.744C1316.66,601.578 1334.47,610.919 1338.72,601.086C1353.08,614.188 1364.26,622.597 1382.15,624.701C1400.8,658.494 1423.75,689.187 1453.34,694.169ZM1468.79,724.267C1478.93,728.441 1485,736.148 1486.99,747.389C1480,740.433 1473.93,732.726 1468.79,724.267ZM1149.72,763.23C1141.56,750.039 1128.58,743.893 1116.08,735.328C1120.79,733.276 1128.47,730.37 1134.65,733.881C1130.64,725.611 1125.3,719.776 1118.62,716.375C1138.66,715.046 1149.45,726.581 1151.01,750.981C1159.84,741.81 1163.01,754 1163.21,777.429C1172.48,787.956 1184.04,797.25 1203.35,811.601C1209.38,824.646 1223.23,835.073 1243.7,843.279C1268.21,857.676 1282.18,875.121 1279.73,895.242C1264.85,877.902 1248.25,865.856 1230.19,858.302C1252.02,878.553 1267,898.237 1262.89,916.34L1239.88,897.828C1246.12,918.41 1248.82,937.748 1240.92,961.475C1236.2,982.675 1240.02,1000.88 1248.98,1017.3C1236.08,1034.88 1189.93,1032.46 1176.39,999.641L1163.82,998.878C1169.85,992.37 1174,983.322 1171.27,975.346L1153.2,985.782C1159.32,977.864 1163.74,967.145 1163.02,959.517C1157.14,965.445 1149.86,970.565 1140.53,974.501C1152.4,961.966 1161.78,948.652 1163.4,932.904C1155.48,942.015 1146.25,950.024 1133.13,954.74C1134.2,938.801 1148.66,926.868 1166.25,915.87C1175.32,910.201 1178.35,903.133 1181.61,896.023C1176.02,899.958 1170.22,903.635 1160.97,904.123C1151.08,904.646 1182.88,885.127 1198.57,866.976C1190.68,872.26 1183.54,875.603 1173.93,873.936C1166.31,872.613 1179.54,859.674 1188.31,855.025C1181.41,852.182 1173.75,851.637 1164.07,857.077C1156.41,845.136 1166.64,838.804 1203.01,840.671C1188.03,826.532 1168.8,817.768 1147.29,811.871C1147.88,803.91 1154.08,800.597 1164.11,800.466C1161.93,795.792 1157.02,792.11 1144.98,791.008C1140.13,781.73 1146.3,779.688 1158.96,781.916C1153.48,774.982 1143.77,771.175 1128.49,766.893C1119.73,764.437 1131.43,757.471 1149.72,763.23ZM1340.73,542.289C1362,548.73 1382.32,555.903 1399.71,565.369C1403.32,525.828 1390.53,496.736 1363.32,476.827C1361.25,502.81 1354.98,525.592 1340.73,542.289ZM1450.17,611.306C1447.83,604.528 1444.14,597.588 1433.77,594.973C1415.36,611.762 1414.36,632.229 1433.39,642.448C1431.21,626.33 1433.38,613.419 1450.17,611.306ZM1406.93,575.334C1411.81,585.079 1416.48,594.505 1420.64,603.099C1438.04,579.181 1418.7,570.279 1406.93,575.334ZM1450.72,641.227C1462.41,640.626 1467.15,644.936 1464.94,654.154C1457.1,664.438 1446.27,653.921 1450.72,641.227ZM1358.14,715.541C1360.64,720.601 1361.42,726.209 1359.28,732.745C1347.22,728.647 1348.23,720.205 1358.14,715.541ZM1388.92,1374.92C1437.78,1353.99 1552.63,1310.73 1628.85,1296.56C1640.25,1308.58 1648.88,1332.13 1653.72,1352.26C1637.11,1380.63 1638.18,1391.72 1647.78,1434.88C1652.88,1457.79 1681.29,1499.19 1681.29,1499.19C1678.42,1510.83 1680.02,1519.29 1688.48,1528.21C1691.47,1547.15 1669.64,1518.7 1663.5,1514.87C1668.97,1522.53 1670.45,1531.27 1668.11,1541.03C1665.97,1550.01 1648.53,1531.83 1640.26,1521.37C1642.65,1530.63 1642.84,1538.96 1640.39,1546.17C1627.76,1538.18 1613.49,1522.17 1600.37,1509.26C1604.45,1517.72 1606.66,1525.4 1605.35,1531.6C1597.24,1517.25 1585.8,1506.37 1570.7,1499.3C1579.47,1508.07 1586.61,1519.78 1587.55,1528.1C1562.68,1507.34 1544.14,1491.1 1527.46,1489.31C1513.42,1487.8 1480.3,1471.15 1450.57,1444.4C1418.74,1415.77 1414.16,1413.31 1388.92,1374.92ZM1866.63,1563.02C1861.73,1568.88 1858.2,1546.76 1866.31,1545.94C1878.49,1544.72 1881.78,1503.43 1880.15,1462.76C1884.95,1445.45 1896.2,1431.05 1907.04,1416.16C1904.86,1406.47 1905.29,1396.94 1911.45,1387.76C1916.89,1388.94 1917.24,1396.05 1918.35,1404.13C1937.23,1389.36 1934.46,1333.34 1957.06,1344.26C1973.04,1351.98 1941.28,1401.11 1916.19,1432.7C1927.04,1432.46 1938.57,1417.94 1956.3,1394.46C1963.14,1385.4 1981.71,1402.66 1955.31,1419.54C1934.73,1433.78 1919.33,1448.29 1908.82,1465.93C1929.38,1449.01 1947.5,1436.76 1967.61,1430.01C1981.31,1430.01 1946.83,1458.18 1924.98,1472.92C1939.48,1472 1947.91,1463.02 1963.44,1458.7C1988.26,1451.8 1949.94,1488.09 1924.41,1513.49C1902.1,1535.69 1878.98,1564.94 1866.63,1563.02Z" style="fill:rgb(219,219,219);"/>
        </g>
        <g id="Black" transform="matrix(0.345253,0,0,0.345253,26.3408,780.564)">
            <path d="M1824.22,1809.02C1841.74,1804.97 1860.49,1806.28 1880.04,1811.12C1893.71,1796.07 1911.63,1781.16 1932.67,1766.35C1954.88,1757.67 1977.93,1754.73 2001.42,1754.67C2008.74,1729.35 2020.32,1703.1 2032.49,1676.72C2046.71,1653.88 2065.3,1633.42 2092.93,1613.86C2076.98,1592.54 2069.79,1569.6 2066.35,1543.12C2069.74,1516.99 2079.32,1491.89 2094.81,1467.77C2077.64,1443.32 2062.1,1423.47 2055.83,1405.68C2059.76,1377.31 2066.42,1355.11 2078.95,1336.1C2034.25,1293.41 2030.83,1231.28 2054.66,1232.56C2074.24,1233.62 2083.62,1246.75 2084.02,1274.46L2106.73,1507.01C2103.52,1514.62 2095.9,1518.75 2085.11,1520.36C2095.08,1525.48 2100.98,1533.33 2103.96,1543.12C2106.17,1615.54 2084.1,1676.27 2046.23,1729.41C2003.05,1769.12 1951.26,1807.47 1886.02,1826.45C1852.03,1814.89 1835.83,1819.38 1835.15,1839.38C1733.49,1848.18 1551.87,1954.15 1527.02,2041.59C1482.55,1946.54 1400.03,1898.15 1292.18,1866.39C1212.35,1842.89 1123.6,1824.82 1060.77,1791.42C1002.11,1760.25 960.383,1703.92 937.594,1619.5C928.771,1581.08 950.288,1543.31 967.688,1572.73C974.196,1583.74 962.141,1611.46 949.393,1627.18C974.435,1642.52 996.962,1664.52 1016.86,1693.52C1031.65,1713.74 1034.28,1738.84 1035.18,1763.45C1065.33,1760.86 1092.39,1765.29 1119,1773.37C1138.64,1784.79 1155.46,1799.31 1169.11,1816.56L1224.48,1814.17C1241.4,1822.07 1261.02,1835.83 1275.88,1852.46C1299.99,1850.94 1323.21,1847.17 1345.86,1841.93C1362.18,1852.19 1380.59,1873.36 1400.23,1900.97L1454.82,1905.88C1489.9,1930.63 1510.19,1964.3 1521.63,2001.12C1536.38,1967.28 1558.6,1934.82 1585.23,1903.17C1610.65,1897.45 1635.49,1894.55 1659.4,1896.09C1668.52,1873.81 1680.67,1854.48 1697.62,1839.8C1723.44,1833.56 1751.29,1839.87 1773.75,1850.24C1787.1,1834.62 1802.63,1820.17 1824.22,1809.02ZM1050.52,1568.77C1058.91,1665.46 1184.98,1745.13 1353.68,1764.43C1368.12,1802.37 1370.12,1784.09 1387.14,1775.48C1448.44,1795.48 1487.81,1829.51 1521.14,1867.41C1565.56,1816.7 1638.45,1776.16 1698.21,1756.49C1728.27,1746.6 1741.18,1746.11 1750.01,1758.64C1752.52,1744.26 1771.9,1735.53 1804.77,1731.33C1897.12,1715.5 1964.13,1675.1 1978.58,1620.16C1996.41,1552.35 1991.34,1488.86 1985.72,1425.47C1987.26,1416.24 1992.13,1409.38 1999.76,1404.49C1984.6,1399.34 1979.57,1391.44 1976.72,1369.73C1969,1310.92 1965.4,1230.77 1975.29,1232.54L1990.4,1363.16L1993.29,1224.71C2030.64,1240.84 2041.88,1305.42 2003.95,1338.74C2020.07,1354.28 2030.37,1370.29 2037.87,1394.17C2049.18,1430.16 2035.05,1461.08 2011.27,1474.04C2032.43,1491.17 2049.7,1511.12 2050.37,1543.12C2050.94,1570.79 2033.96,1592 2003.91,1607.02C2021.26,1624.64 2026.99,1647.66 2021.11,1676.06C2006.1,1689.23 1985.49,1694.47 1960.41,1693.37C1955.67,1718.47 1947.41,1742.07 1926.34,1760.22C1914.9,1764.45 1895.32,1753.11 1870.39,1739.79C1857.51,1758.74 1843.97,1779.48 1824.86,1792.98C1805.92,1794.18 1783.66,1787.17 1760.49,1777.9C1742.86,1795.79 1722.26,1812.78 1693.94,1827.43C1673.6,1832 1651.09,1829.32 1627.85,1824.16C1601.91,1863.44 1590.08,1902.16 1530.95,1906.29C1561.5,1845.29 1634.08,1808.6 1714.31,1776.34C1726.34,1771.5 1720.85,1763.2 1699.45,1770.36C1650.32,1786.79 1592.91,1806.84 1521.14,1885.98C1517.35,1890.16 1514.12,1887.84 1511.51,1884.21C1483.85,1845.76 1443.1,1813.11 1395.54,1794.59C1388.09,1791.68 1389.92,1803.01 1413.19,1812.17C1439.75,1822.63 1489.47,1858.46 1510.21,1905.29L1462.63,1903.06C1448.42,1880.13 1435.22,1855.51 1422.6,1829.9C1399.93,1835.28 1374.65,1836.25 1347.98,1834.88C1328.47,1819.9 1310.63,1803.13 1295.82,1783.14C1280.95,1792.75 1263.23,1800.5 1233.37,1800.35C1209.27,1794.31 1192.2,1779.8 1183.62,1755.05C1165.66,1760.67 1144.98,1761.76 1121.08,1757.48C1101.11,1740.17 1088.04,1716.75 1082.52,1691.64C1058.78,1691.64 1034.94,1690.51 1019.3,1671.77C1012.26,1644.45 1015.42,1620.69 1030.15,1600.99C1009.58,1594.24 993.939,1582.12 991.295,1563.86L1027.9,1563.61C1036.88,1609.08 1052.25,1645.34 1078.24,1666.25C1060.04,1638.81 1049.62,1608.98 1043.03,1577.99C1038.97,1558.91 1049.47,1556.67 1050.52,1568.77ZM2057.9,819.056L2099.97,822.425L2100.78,802.105L2087.15,782.217L2101.08,764.027C2105.22,683.478 2132.32,589.934 2153.99,512.87L2087.44,562.854C2086.26,586.338 2094.41,611.452 2109.88,629.76C2093.67,650.493 2079.68,671.906 2072.91,695.521C2073.84,713.609 2080.23,734.102 2091.66,756.811L2057.9,819.056ZM2043.18,816.19C2041.54,796.893 2032.37,779.685 2017.73,761.878C2035.02,745.263 2047.34,721.981 2058.38,696.97C2061.22,671.218 2056.1,647.749 2040.09,627.402C2059.93,611.029 2069.82,592.485 2070.22,571.869C2015.76,568.551 1969.47,704.211 1997.54,745.589C2005.55,692.671 2009.26,641.452 2030.51,608.869C2021.68,653.69 2014.09,698.325 2007.78,742.766C1991.17,768.836 1981.53,788.906 1984.68,811.891L1993.47,812.114C1994.43,799.443 1998.71,786.399 2004.13,770.265C2004.63,784.773 2005.73,800.41 2011.17,812.425L2043.18,816.19ZM1012.9,970.313C1023.29,957.315 1030.67,941.464 1035.18,922.891L1044.24,949.92C1052.95,930.116 1039.02,768.649 1037.21,709.599C1009.27,704.718 1011.32,698.565 1027.14,685.967C1024.76,653.021 1023.39,621.888 1012.2,599.841C1005.08,619.361 1012.37,648.219 1014.84,675.65C1005.68,647.609 997.57,620.257 989.882,593.184C970.511,570.061 943.428,575.006 966.708,606.136C973.019,617.445 982.283,627.171 992.815,636.395C980.837,655.546 974.744,678.659 977.252,707.564C984.592,731.812 997.701,754.261 1019.56,773.98C1003.28,791.424 990.352,812.738 989.337,847.845C992.387,873.341 1003.32,895.261 1025.25,912.204C1006.5,936.134 992.008,958.736 1012.9,970.313ZM948.198,909.77C972.311,888.931 978.115,867.726 973.714,846.318C972.364,812.624 957.85,793.945 937.594,781.816C958.704,758.681 964.39,734.232 961.478,709.05C958.387,675.493 942.004,659.761 923.113,647.39C941.461,628.807 949.177,602.701 944.473,567.804C918.949,552.24 894.911,539.554 872.226,529.489C884.553,555.161 894.621,584.999 902.732,614.478L926.857,621.705L909.482,652.838C924.042,743.936 938.819,885.74 937.761,990.155C990.497,967.846 979.554,941.714 948.198,909.77ZM1940.14,388.496C1934.96,488.955 1954.31,561.708 2016.9,585.634L2025.15,575.757C1942.65,525.285 1946.36,454.173 1958.59,381.023C1919.03,359.214 1873.29,347.613 1828.6,334.293C1874.18,341.581 1919.9,351.754 1965.93,369.051C1974.7,359.386 1983.55,351.508 1995.91,341.913C1974.26,339.567 1951.59,343.874 1934.34,352.047C1929.18,323.407 1914.03,305.416 1893.53,293.108C1865.16,291.03 1845.63,305.947 1827.16,322.909C1820.06,297.703 1802.37,279.615 1775.91,267.423C1744.05,262.87 1724.93,277.059 1707.63,293.926L1667.8,252.732L1658.94,293.085C1692.58,297.069 1716.84,301.533 1734.9,310.257C1709.52,305.07 1685.12,303.514 1661.67,305.424L1656.22,313.554C1752.52,327.802 1851.3,346.18 1940.14,388.496ZM1845.1,222.959C1862.91,253.974 1869.01,256.003 1893.31,234.68C1950.89,251.261 2006.66,273.985 2063.32,297.756L2012.35,330.213C1984.2,327.425 1972.69,304.214 1961.35,276.343C1938.44,279.662 1917.15,281.239 1897.22,281.373C1872.98,278.749 1853.64,262.322 1837.18,237.751C1818.5,246.525 1799.84,252.116 1781.21,253.056C1759.61,256.292 1744.78,237.842 1720.45,207.996C1704.57,215.053 1691.52,217.264 1681.04,215.064L1690.1,195.416C1739.62,201.082 1790.85,209.753 1845.1,222.959ZM2025.75,372.92C2029.19,374.912 2022.62,385.883 2020.34,391.023C2004.83,425.965 2016.21,439.367 2045.17,434.512C2036.24,397.868 2038.59,362.252 2046.98,325.434C2021.75,340.437 1995.56,358.83 1968.18,381.312C1960.31,468.384 1961.57,548.739 2044.32,569.195C2081.52,553.689 2114.56,533.437 2141.11,505.789C2106.16,499.235 2079.49,479.409 2057.34,452.344C2037.96,454.464 2025.39,500.848 2080.43,495.272C2112.64,492.008 2080.46,555.921 2028.27,533.825C2015.81,528.551 2012.5,515.487 2005.81,499.466C1997.12,497.57 1989.13,500.962 1981.4,506.384C1972.17,490.358 1976.95,476.231 1985.59,462.628C1969.36,412.021 1988.04,351.131 2025.75,372.92ZM952.624,315.634L986.433,297.42C1002.07,303.226 1013.89,302.918 1013.79,283.476C1083.68,258.632 1153.28,235.314 1219.86,228.091C1253.86,211.03 1287.63,197.239 1319.52,210.007C1336.05,234.45 1324.21,229.33 1296.1,219.592C1288.96,240.548 1270.36,255.35 1240.3,263.997C1216.86,268.167 1189.27,264.692 1168.12,251.09C1160.98,271.9 1146.55,289.093 1117.89,303.808C1094.84,305.684 1072.21,300.566 1050.02,288.453C1038.41,323.103 1023.97,343.535 1005.56,344.169L952.624,315.634ZM1323.12,292.535C1322.06,288.742 1345.68,257.698 1344.61,265.251C1344.17,268.344 1352.96,293.883 1352.96,293.883C1314.82,302.898 1283.14,317.266 1251.93,332.017C1293.05,320.339 1332.25,314.429 1369.17,315.316C1325.99,323.644 1285.87,334.149 1246.13,344.922C1223.14,315.858 1226.34,328.757 1220.95,352.34L1077.95,392.58C1122.72,368.02 1158.7,354.925 1192.77,344.338C1154.43,346.517 1109.95,362.605 1064.29,381.35L1018.85,354.645C1043.44,352.1 1067.41,350.55 1085.01,359.083C1090.35,340.38 1099.87,323.903 1121.89,314.065C1147.15,309.11 1168.76,312.555 1186.37,325.226C1209,305.173 1225.22,281.528 1251.32,268.833C1277.76,267.684 1302.57,272.43 1323.12,292.535ZM884.844,521.527C912.474,504.109 943.742,494.091 962.362,461.686C994.869,464.825 978.419,511.548 934.574,516.854C929.629,540.837 959.615,550.992 982.902,551.172C1005.88,526.001 1015.38,503.299 1043.73,511.487C1041.51,547.128 1012.55,562.936 969.308,568.157C969.308,568.157 883.802,522.184 884.844,521.527ZM1054.66,387.9C1022.13,365.499 987.93,346.599 952.736,329.765C976.141,376.908 976.718,415.976 967.495,446.474C1016.56,462.261 1019.45,437.74 996.644,387.631C1041.21,379.469 1068.16,442.324 1032.05,473.334C1038.26,485.459 1044.82,495.985 1051.48,506.07C1051.6,532.795 1028.21,561.828 998.802,587.735C1050.45,575.79 1090.22,521.251 1081.9,417.221L1073.11,403.257C1074.03,428.874 1070.18,455.838 1063.17,483.69C1065.81,452.162 1066.04,420.457 1054.66,387.9ZM1749.66,1375.98C1737.19,1385.84 1712.05,1334.89 1699.91,1304.98C1720.6,1326.28 1756.1,1370.89 1749.66,1375.98ZM1720.71,1366.74C1731.34,1380.26 1757.12,1408.27 1753.38,1414.75C1748.68,1422.9 1724.01,1389.1 1720.71,1366.74ZM1836.23,1456.46C1849.83,1477.68 1853.53,1531.13 1841.47,1529.27C1833.15,1527.98 1836.85,1483.14 1836.23,1456.46ZM1822.29,1495.84C1829.71,1508.64 1824.96,1532.55 1817.16,1528.8C1810.57,1525.63 1816.88,1506.71 1822.29,1495.84ZM1766.41,1527.16C1765.35,1514.46 1754.69,1494.88 1749.58,1496.64C1741.31,1499.48 1753.16,1522.86 1766.41,1527.16ZM1629.49,1394.1C1644.55,1410.83 1654.06,1438.76 1643.68,1444.26C1633.42,1449.7 1631.45,1413.82 1629.49,1394.1ZM1580.08,1347.45C1604.66,1364.51 1626.96,1383.9 1614.88,1419.05C1612.29,1409.79 1609.26,1400.71 1603.13,1392.87L1598.12,1407.49C1585.91,1394.12 1581.21,1372.7 1580.08,1347.45ZM1559.95,1342.97C1570.31,1357.73 1582.98,1391.05 1574.57,1393.12C1562.66,1396.04 1561.99,1364.07 1559.95,1342.97ZM1551.79,1380.4C1544.05,1369.08 1537.69,1345.13 1544.22,1343.04C1553.13,1340.2 1554.44,1366.88 1551.79,1380.4ZM1460.6,1584.98C1497.25,1563.42 1527.41,1543.32 1538.8,1516.55C1543.12,1506.4 1533.29,1503.72 1529.16,1512.97C1517.51,1539.1 1464.89,1569.55 1460.6,1584.98ZM1518.09,1514.37C1512.7,1534.13 1496.06,1544.42 1475.05,1551.24C1487.74,1537.58 1503.57,1527.07 1518.09,1514.37ZM1468.63,1421.56C1475.69,1423.65 1482.49,1426.99 1489.69,1427.23C1480.32,1435.57 1473.77,1432.62 1468.63,1421.56ZM1448.69,1431.81C1451.83,1426.68 1474.03,1438.66 1487.19,1448.25C1472.71,1452.2 1443.85,1439.74 1448.69,1431.81ZM1465.83,1464.27C1453.16,1448.62 1425.6,1433.73 1421.35,1442.19C1415.41,1453.99 1450.77,1466.91 1465.83,1464.27ZM1390.96,1419.42C1403.87,1443.81 1419.46,1464.56 1440.51,1477.9C1425.77,1499.37 1369.29,1477.09 1375.23,1438.28C1385.32,1453.34 1395.81,1468.63 1413.31,1472.64C1393.32,1450.34 1388.22,1433.46 1390.96,1419.42ZM1398.3,1506.49C1391.48,1499.67 1373.66,1521.22 1366.94,1537.12C1382.74,1529.86 1404.74,1512.93 1398.3,1506.49ZM2006.87,1449.04C2009.19,1622.2 2003.27,1703.34 1777.84,1748.22C1966.25,1739.81 2038.59,1636.82 2006.87,1449.04ZM1101.88,1690.58C1168.17,1743.72 1242.44,1773.21 1338.7,1780.44C1251.95,1758.79 1179.56,1730.63 1101.88,1690.58ZM1869.48,587.598C1878.7,587.692 1879.7,602.085 1870.3,602.527C1859.2,603.049 1858.83,587.488 1869.48,587.598ZM1732.84,570.593C1742.06,570.688 1743.06,585.081 1733.66,585.523C1722.57,586.045 1722.19,570.484 1732.84,570.593ZM1608.52,561.377C1617.74,561.471 1618.74,575.864 1609.34,576.306C1598.24,576.828 1597.87,561.267 1608.52,561.377ZM1539.13,418.764C1548.35,418.859 1549.35,433.251 1539.95,433.694C1528.85,434.216 1528.48,418.655 1539.13,418.764ZM1665.71,421.068C1674.93,421.163 1675.93,435.555 1666.53,435.998C1655.43,436.52 1655.06,420.959 1665.71,421.068ZM1940.14,719.764C1949.36,719.859 1950.36,734.251 1940.96,734.694C1929.86,735.216 1929.49,719.655 1940.14,719.764ZM1799.51,715.272C1808.73,715.367 1809.73,729.759 1800.33,730.202C1789.23,730.724 1788.86,715.163 1799.51,715.272ZM1673.67,709.403C1682.89,709.497 1683.89,723.89 1674.5,724.332C1663.4,724.854 1663.03,709.293 1673.67,709.403ZM1815.41,445.582C1824.63,445.676 1825.63,460.069 1816.23,460.511C1805.13,461.034 1804.76,445.473 1815.41,445.582ZM1187.65,1549.15C1196.88,1549.24 1197.88,1563.64 1188.48,1564.08C1177.38,1564.6 1177.01,1549.04 1187.65,1549.15ZM1394.56,1715.2C1403.78,1715.3 1404.78,1729.69 1395.39,1730.13C1384.29,1730.65 1383.91,1715.09 1394.56,1715.2ZM1943.98,598.573C1971.51,612.182 1978.69,589.163 1940.79,576.273C1942.8,535.772 1919.12,536.584 1921.14,577.995C1891.1,579.711 1886.45,619.32 1920.34,600.507C1923.25,598.896 1924.79,606.716 1924.37,611.171C1919.04,666.934 1949.6,667.319 1941.03,609.705C1940.65,607.121 1940.92,600.827 1943.98,598.573ZM1470.28,1716.11C1497.81,1729.72 1504.99,1706.7 1467.09,1693.81C1469.1,1653.31 1445.42,1654.12 1447.43,1695.53C1417.4,1697.25 1412.75,1736.86 1446.64,1718.05C1449.54,1716.43 1451.09,1724.25 1450.66,1728.71C1445.34,1784.47 1475.9,1784.86 1467.33,1727.24C1466.94,1724.66 1467.22,1718.37 1470.28,1716.11ZM1259.6,1561.3C1287.13,1574.91 1294.31,1551.89 1256.41,1539C1258.42,1498.5 1234.75,1499.31 1236.76,1540.72C1206.73,1542.44 1202.07,1582.05 1235.96,1563.24C1238.87,1561.62 1240.41,1569.44 1239.99,1573.9C1234.66,1629.66 1265.22,1630.05 1256.65,1572.43C1256.27,1569.85 1256.54,1563.56 1259.6,1561.3ZM1145.67,1563.88C1173.2,1577.49 1180.38,1554.47 1142.48,1541.58C1144.49,1501.08 1120.81,1501.89 1122.83,1543.31C1092.79,1545.02 1088.14,1584.63 1122.03,1565.82C1124.93,1564.21 1126.48,1572.03 1126.06,1576.48C1120.73,1632.25 1151.29,1632.63 1142.72,1575.02C1142.34,1572.43 1142.61,1566.14 1145.67,1563.88ZM1347.56,1724.13C1375.09,1737.74 1382.27,1714.72 1344.37,1701.83C1346.38,1661.33 1322.7,1662.14 1324.71,1703.55C1294.68,1705.27 1290.03,1744.88 1323.92,1726.06C1326.82,1724.45 1328.28,1732.27 1327.94,1736.73C1325.83,1764.48 1346.28,1768 1344.61,1735.26C1344.48,1732.65 1344.5,1726.38 1347.56,1724.13ZM1817.51,587.585C1845.04,601.195 1852.22,578.176 1814.32,565.286C1816.33,524.784 1792.65,525.596 1794.67,567.007C1764.63,568.724 1759.98,608.332 1793.87,589.519C1796.78,587.908 1798.32,595.728 1797.9,600.184C1792.57,655.946 1823.13,656.331 1814.56,598.718C1814.18,596.133 1814.45,589.839 1817.51,587.585ZM1680.36,575.744C1707.88,589.353 1715.07,566.334 1677.16,553.444C1679.18,512.943 1655.5,513.755 1657.51,555.166C1627.48,556.882 1622.83,596.491 1656.72,577.677C1659.62,576.067 1661.17,583.886 1660.74,588.342C1655.42,644.105 1685.98,644.489 1677.41,586.876C1677.02,584.292 1677.3,577.998 1680.36,575.744ZM1560.1,573.644C1587.63,587.254 1594.82,564.235 1556.91,551.345C1558.93,510.843 1535.25,511.655 1537.26,553.066C1507.23,554.783 1502.58,594.391 1536.47,575.578C1539.37,573.967 1540.92,581.787 1540.49,586.243C1535.17,642.005 1565.73,642.39 1557.15,584.777C1556.77,582.192 1557.05,575.898 1560.1,573.644ZM1750.17,717C1777.7,730.61 1784.88,707.591 1746.98,694.701C1749,654.199 1725.32,655.012 1727.33,696.423C1697.3,698.139 1692.65,737.747 1726.54,718.934C1729.44,717.324 1730.98,725.143 1730.56,729.599C1725.23,785.362 1755.79,785.746 1747.22,728.133C1746.84,725.549 1747.12,719.254 1750.17,717ZM1879.08,724.557C1906.61,738.167 1913.8,715.148 1875.89,702.258C1877.91,661.756 1854.23,662.568 1856.24,703.979C1826.21,705.696 1821.56,745.304 1855.45,726.491C1858.35,724.88 1859.9,732.7 1859.47,737.156C1854.15,792.918 1884.71,793.303 1876.14,735.69C1875.75,733.105 1876.03,726.811 1879.08,724.557ZM1895.31,471.16C1922.84,484.769 1930.02,461.75 1892.12,448.86C1894.14,408.358 1870.46,409.171 1872.47,450.582C1842.44,452.298 1837.79,491.906 1871.68,473.093C1874.58,471.483 1876.12,479.302 1875.7,483.758C1870.37,539.521 1900.93,539.905 1892.36,482.292C1891.98,479.708 1892.26,473.413 1895.31,471.16ZM1756.21,442.61C1783.74,456.22 1790.92,433.201 1753.02,420.31C1755.03,379.809 1731.35,380.621 1733.37,422.032C1703.33,423.749 1698.68,463.357 1732.57,444.544C1735.47,442.933 1737.02,450.753 1736.6,455.209C1731.27,510.971 1761.83,511.356 1753.26,453.743C1752.88,451.158 1753.15,444.864 1756.21,442.61ZM1617.68,428.312C1645.21,441.922 1652.39,418.903 1614.49,406.012C1616.51,365.511 1592.83,366.323 1594.84,407.734C1564.81,409.451 1560.15,449.059 1594.04,430.246C1596.95,428.635 1598.49,436.455 1598.07,440.911C1592.74,496.673 1623.3,497.058 1614.73,439.444C1614.35,436.86 1614.62,430.566 1617.68,428.312ZM1628.48,716.978C1656.01,730.587 1663.19,707.568 1625.29,694.678C1627.31,654.177 1603.63,654.989 1605.64,696.4C1575.8,707.416 1584.78,719.174 1592.02,717.401C1595.02,716.666 1603.72,714.346 1604.85,718.912C1608.64,734.289 1626.53,740.142 1628.48,716.978ZM1805.31,832.399C1816.47,837.915 1824.29,837.415 1827.11,834.01C1831.26,829.015 1824.66,817.766 1802.12,810.1C1804.14,769.598 1780.46,770.411 1782.47,811.822C1762.73,812.95 1753.96,830.445 1759.88,836.966C1762.39,839.727 1767.54,840.52 1775.61,837.267C1777.47,836.514 1781.5,831.843 1781.68,834.333C1783.51,859.957 1800.94,868.176 1805.31,832.399ZM1367.5,242.403C1352.85,225.13 1345.63,205.815 1342.89,185.273C1362.45,185.074 1383.25,183.553 1409.33,179.039C1393.14,190.724 1373.48,192.029 1357.59,195.683C1354.26,211.79 1361.52,227.097 1367.5,242.403ZM1622.4,183.54C1638.72,184.456 1651.37,183.321 1667.42,180.203C1662.21,201.361 1652.94,220.181 1638.6,236.077C1640.02,269.389 1635.35,297.918 1611.64,311.482C1603.83,313.472 1596.76,312.303 1589.98,309.92C1601.27,308.872 1611.12,306.162 1616.47,298.254C1628.11,276.909 1630.87,255.335 1628.69,233.632C1639.81,222.129 1649.72,206.047 1653.76,190.362C1641.02,190.753 1630.56,188.479 1622.4,183.54ZM1381.24,278.134C1384.8,293.89 1388.78,309.38 1395.66,323.005C1418.88,323.21 1441.46,320.666 1463.5,315.843C1446.18,314.801 1428.13,312.992 1407.83,308.781C1394.39,302.448 1387.96,290.171 1381.24,278.134ZM1508.76,307.667C1472.96,266.272 1447.99,237.714 1420.2,286.404C1350.9,262.321 1416.53,133.954 1482.96,186.554L1502.88,129.676L1532.01,185.314C1598.37,164.851 1650.86,231.166 1590.41,292.26C1573.18,231.46 1516.27,270.695 1508.76,307.667ZM1373.37,507.61C1366.43,517.275 1374.63,525.889 1382.37,537.429C1384.22,540.186 1387.12,546.893 1384.82,550.036L1356.64,538.036C1359.13,509.433 1365.9,506.396 1373.37,507.61ZM1595.89,838.124C1597.68,848.074 1601.33,858.611 1609.02,858.182C1618.68,857.642 1609.01,836.793 1595.89,838.124ZM1339.55,938.027C1358.73,933.488 1377.66,923.718 1396.49,911.762C1377.36,911.866 1358.24,912.19 1339.55,938.027ZM1324.18,936.753C1337.54,931.649 1346.21,922.114 1353.21,910.989C1332.95,903.792 1315.97,917.679 1324.18,936.753ZM1335.38,878.905C1316.15,884.55 1304.49,895.721 1301.57,906.534C1319.87,910.426 1330.22,896.072 1335.38,878.905ZM1151.74,626.394C1152.88,616.389 1148.74,614.499 1137.25,618.451C1136.18,625.967 1140.67,628.888 1151.74,626.394ZM1223.77,643.449C1217.63,639.743 1213.12,641.407 1208.26,640.471C1216.73,629.516 1224.26,630.873 1223.77,643.449ZM995.617,989.575C983.886,982.326 973.745,989.434 964.269,1002.55C968.257,1009.29 984.987,1003.55 995.617,989.575ZM1824.86,1253.96C1829.64,1266.49 1842.94,1289.37 1850.97,1284C1859.33,1281.74 1840.51,1256.11 1824.86,1253.96ZM1834.42,1241.97C1842.62,1250.03 1854.69,1263.1 1858.14,1261C1865.62,1256.45 1846.96,1243.33 1834.42,1241.97ZM1932.49,1558.14C1929.2,1550.65 1953.16,1545.88 1971.25,1546.86C1962.68,1552.49 1933.42,1560.26 1932.49,1558.14ZM2074.99,1149.71C2069.97,1164.74 2069.13,1133.68 2054.76,1140.56C2043.23,1146.07 2062.74,1180.19 2087.22,1167.71C2126.42,1147.73 2117.71,1065.58 2117.71,980.9C2130.09,975.82 2143.27,971.92 2157.56,969.665C2155.35,998.034 2156.74,1021.43 2171.66,1036.8C2220.16,1008.05 2186.46,929.382 2120.77,962.178L2118.53,894.664C2127.71,883.454 2136.19,892.416 2143.55,924.04C2169.2,935.107 2173.41,904.471 2157.7,880.334C2112.13,851.238 2070.96,904.213 2073.73,914.526C2074.06,941.411 2076.14,962.218 2072.05,976.356C2069.96,983.601 2062.43,983.607 2056.09,990.897C2048.73,999.35 2065.84,1005.14 2074.64,996.116C2076.72,1046.68 2080.55,1096.69 2074.99,1149.71ZM1931.84,1147.64C1934.47,1154.03 1939.29,1158.46 1944.61,1162.85C1963.23,1160.48 1965.57,1058.71 1952.44,994.954C1926.47,994.954 1927.94,979.653 1953.47,977.146C1941.13,926.015 1956.57,887.132 2010.66,865.306C2033.8,863.706 2054.45,868.227 2061.75,892.069L2026.66,913.826C2022.75,906.669 2020.18,900.727 2016.19,892.777C2008.84,878.125 2000.06,918.568 2003.17,953.326C2013.98,943.035 2024.74,933.757 2035.22,932.889C2039.88,934.864 2040.28,941.46 2039.1,956.039L2003.84,974.115C2011.54,1033.78 2011.62,1097.11 2001.83,1165.21C1978.05,1179.49 1956.27,1184.9 1937.43,1184.02C1922.45,1166.96 1921.2,1154.74 1931.84,1147.64ZM1916.04,1068.41C1916.77,1077.1 1927.37,1075.3 1937.3,1069.71C1922.56,1102.17 1884.1,1116.53 1870,1088.18C1844.22,1109.99 1805.9,1121.47 1804.99,1099.52C1803.28,1057.96 1803.62,1016.77 1790.61,973.196C1807.25,975.957 1825.17,960.423 1845.86,944.233C1839.83,1021.13 1835.21,1102.4 1860.43,1081.32C1883,1046.66 1880.41,1009.13 1862.71,966.687C1887.53,947.008 1914.82,919.609 1923.79,923.119C1912.77,971.372 1911.96,1019.84 1916.04,1068.41ZM1462.26,1248.63C1480.44,1234.49 1500.22,1223.02 1525.63,1221.07C1534.54,1220.39 1529.74,1206.54 1513.22,1206.39C1509.95,1127.66 1508.72,1049.91 1513.96,975.333C1500.45,976.416 1483.89,1002.16 1464.68,1033.11C1475.13,1078.12 1474.18,1146.63 1471.9,1217.82C1456.73,1244 1452.36,1249.44 1462.26,1248.63ZM1363.21,1142.32C1381.71,1113.62 1380.29,1074.31 1376.64,1033.81C1395.8,1011.61 1412.54,994.579 1428.68,983.624C1441.81,981.099 1454.45,981.018 1465.62,988.227C1459.72,1004.38 1449.52,1018.98 1435.76,1032.3L1425.37,1018.97C1413.81,1029.77 1412.62,1049.74 1417.55,1075.13L1436.54,1062.47C1444.96,1066.68 1443.08,1082.9 1441.85,1098.36L1421.94,1105.59C1422.74,1171.12 1418.39,1235.24 1413.66,1299.25C1397.31,1319.89 1376.51,1331.95 1352.63,1335.19C1377.82,1270.19 1390.62,1205.6 1363.21,1142.32ZM1327.91,1055.57C1323.68,1073.05 1323.89,1094.16 1327.95,1109.64C1337.62,1102.37 1348.91,1094.35 1357.09,1096.32C1358.44,1106.29 1356.24,1115.92 1351.62,1125.34C1339.56,1123.23 1330.73,1131.1 1323.81,1144.88C1326.69,1184.09 1330.39,1210.07 1324.18,1216.09C1346.99,1316.7 1301.32,1378.23 1252.89,1360.02C1288.95,1341.32 1284.98,1266.27 1280.09,1178.93C1265.14,1175.27 1260.1,1169.66 1280.03,1152.45C1280.83,1078.05 1304.5,995.778 1365.87,1039.01C1365.41,1055.4 1358.04,1069.38 1346.27,1081.83C1338.47,1078.49 1333.19,1065.93 1327.91,1055.57ZM1187.91,1181.31L1137.27,1202.44C1144.48,1212.82 1145.54,1235.08 1145.1,1255.83C1142.6,1295.51 1147.84,1335.07 1158.46,1335.92C1170.82,1341.13 1185.58,1326.73 1205.8,1315.11C1213.3,1310.81 1219.73,1305.4 1222,1310.56C1225.99,1319.61 1226.79,1324.79 1233.97,1326.61C1249.92,1313.72 1262.2,1298.27 1269.73,1279.52C1256.32,1276.81 1248.88,1259.15 1254.46,1229.76C1254.64,1200.54 1257.37,1170.04 1262.94,1138.12C1245.15,1143.75 1225.78,1156.67 1205.05,1175.84C1221.27,1219.59 1227.36,1262.15 1206.41,1294.55C1180.11,1307.66 1177.34,1240.33 1187.91,1181.31ZM853.425,1252.27C857.796,1222.18 853.225,1188.2 836.807,1155.46C849.569,1156.15 861.813,1154.25 874.148,1150.33C899.55,1127.7 922.989,1112.62 947.009,1109.02C923.783,1155.89 920.141,1205.3 925.222,1255.83C949.49,1268.55 971.345,1276.39 990.288,1278.37L989.385,1256.09C1002.5,1234.98 1000.38,1237.05 983.371,1219.81C985.928,1198.16 987.959,1177.18 985.634,1161.65C974.036,1158.1 967.232,1154.96 967.282,1148.24C1002.58,1124.84 1061.48,1082.15 1060.83,1098.47C1052.84,1110.91 1045.74,1123.74 1044.82,1139.29L1054.42,1300.95L1079.44,1312.35C1088.19,1324.28 1083.36,1336.8 1055.46,1326.71C1052.26,1372.59 1055.79,1413.66 1078.07,1441.33C1038.64,1456.75 1000.93,1473.76 968.259,1495.41C965.664,1486.54 973.303,1479.55 985.982,1468.53C993.925,1437.75 990.307,1419.04 989.387,1396.28C1001.7,1377.88 1006.58,1372.55 992.214,1361.52L993.355,1302.97L925.905,1286.13C923.366,1344.77 922.602,1402.8 948.022,1451.71C935.576,1463.65 928.421,1461.78 904.24,1468.47C877.456,1491 852.586,1507.01 833.426,1503.56C859.037,1480.46 863.141,1442.53 860.742,1397.53C869.932,1370.17 874.378,1364.66 858.554,1354.66C856.592,1331.42 854.359,1302.51 852.383,1276.44C799.308,1260.36 735.881,1325.88 780.959,1348.79C798.747,1352.8 816.218,1334.01 833.692,1315.39C835.3,1342.19 828.738,1371.02 807.93,1403.37C728.165,1386.63 703.445,1309.65 786.071,1258.03C800.732,1248.87 839.513,1248.78 853.425,1252.27ZM1703.38,964.614C1682.11,977.412 1663.14,990.364 1652.96,1014.82C1674.48,1070.41 1667.11,1154.38 1665.46,1230.2C1643.13,1267.17 1640.88,1290.56 1647.75,1307.78C1659.4,1265.83 1682.75,1232.76 1727.79,1219.51C1739.45,1216.07 1719.63,1204.89 1703.23,1198.01C1701.81,1171.25 1705.75,1144.29 1713.55,1117.19C1716.09,1110.51 1730.04,1115.09 1748.47,1120.99C1782.42,1107.43 1797.63,978.825 1739.49,957.11C1731.25,956.68 1723.28,968.421 1710.56,983.846C1704.74,990.907 1701.41,977.315 1703.38,964.614ZM1718.27,1096.79C1752.58,1101.06 1741.57,978.259 1716.07,990.302C1701.21,997.319 1705.94,1023.64 1706.96,1048.57C1707.93,1072.45 1704.57,1095.08 1718.27,1096.79ZM1626.73,1143.77C1611.22,1147.71 1611.09,1161.38 1603.08,1185.96C1595.67,1208.71 1579.81,1203.49 1579.32,1165.48C1582.3,1129.89 1613.6,1103.26 1651.1,1078.59C1633.66,1046.77 1616.19,1021.08 1598.59,1023.37C1585.12,1025.12 1561.36,1052.18 1543.75,1074.85C1545.86,1104.82 1544.05,1134.78 1536.82,1164.04C1543.39,1220.92 1588.85,1234.93 1620.12,1203.47C1641.58,1181.88 1657.24,1150.1 1626.73,1143.77ZM1577.27,1117.88C1590.3,1115.47 1601.14,1104.17 1609.96,1089.95C1605.73,1067.87 1597.24,1053.06 1587.99,1051.78C1580.11,1071.34 1577.25,1096.87 1577.27,1117.88Z"/>
        </g>
    </g>
</svg>
