<?xml version="1.0" encoding="UTF-8" standalone="no"?>
<!DOCTYPE svg PUBLIC "-//W3C//DTD SVG 1.1//EN" "http://www.w3.org/Graphics/SVG/1.1/DTD/svg11.dtd">
<svg width="100%" height="100%" viewBox="0 0 4000 4000" version="1.1" xmlns="http://www.w3.org/2000/svg" xmlns:xlink="http://www.w3.org/1999/xlink" xml:space="preserve" xmlns:serif="http://www.serif.com/" style="fill-rule:evenodd;clip-rule:evenodd;stroke-linejoin:round;stroke-miterlimit:2;">
    <g id="Silhouette" transform="matrix(11.2994,0,0,11.4531,-9055.11,-5316.15)">
        <path d="M927.658,501.339C923.288,507.913 920.974,514.64 918.404,520.528C915.917,526.226 913.222,531.117 907.676,534.017C907.116,534.311 906.749,534.876 906.711,535.508C906.672,536.139 906.967,536.745 907.488,537.105C911.227,539.685 914.678,540.701 917.836,540.247C914.073,546.048 909.394,550.41 903.624,553.076C902.985,553.371 902.576,554.01 902.575,554.714C902.574,555.418 902.983,556.058 903.621,556.354C908.344,558.546 912.485,559.664 916.233,560.984C919.589,562.166 922.614,563.508 925.443,566.137C932.386,581.766 944.724,603.359 953.885,610.316C954.386,618.426 954.39,627.248 952.611,636.376C952.186,638.555 951.637,640.704 950.935,642.816C947.616,652.803 942.922,660.559 934.782,669.027C931.232,672.72 924.358,677.786 921.853,679.592C918.663,677.605 915.563,674.506 912.806,671.317C910.871,669.078 910.166,665.669 910.001,661.542C909.729,654.707 911.061,646.015 912.145,636.932C913.808,623 914.977,608.589 910.156,599.272C906.427,592.067 900.17,584.739 892.265,580.2C887.355,568.592 878.611,563.437 870.162,563.736C861.571,564.039 853.098,570.016 849.046,581.088C848.822,581.701 848.945,582.387 849.369,582.882C849.792,583.378 850.45,583.607 851.09,583.482L857.639,582.196C857.326,583.183 857.058,584.15 856.832,585.098C854.011,596.962 857.823,605.757 863.491,610.505C864.129,611.039 865.049,611.069 865.719,610.577C866.39,610.085 866.638,609.2 866.321,608.431C864.681,604.459 866.142,601.089 869.092,597.983C872.488,594.406 877.733,591.182 883.26,587.976C889.874,590.983 895.334,596.656 898.326,602.025C898.884,603.027 899.371,604.055 899.793,605.105C901.906,610.37 902.387,616.186 902.052,622.148C901.787,626.861 901.009,631.663 900.085,636.369C898.185,646.039 895.651,655.281 895.443,662.595C895.291,667.916 896.379,672.282 899.411,675.298C904.89,683.51 914.254,694.482 921.061,705.333C925.449,712.329 928.794,719.248 929.102,725.303C929.781,738.664 922.955,752.3 905.316,761.837C904.706,762.167 904.339,762.816 904.371,763.509C904.403,764.202 904.828,764.815 905.466,765.087C908.451,766.361 912.729,769.667 917.092,774.61C921.737,779.871 922.742,785.68 919.456,792.736C919.212,793.261 919.234,793.872 919.516,794.378C919.798,794.884 920.306,795.224 920.881,795.292C923.168,795.563 925.337,797.208 927.78,799.08C930.611,801.249 933.713,803.768 937.415,805.536C938.914,806.252 940.508,806.846 942.219,807.254C947.487,808.511 951.606,809.41 954.16,809.011C954.615,808.94 955.032,808.832 955.412,808.69C965.535,810.316 970.988,807.735 973.01,804.008C974.341,801.555 974.346,798.462 973.084,795.263C971.396,790.982 967.395,786.454 961.766,783.361C961.372,783.144 960.91,783.082 960.472,783.188C957.695,783.86 955.384,782.652 953.291,780.569C950.823,778.113 948.676,774.49 946.602,770.665C946.291,770.091 946.48,769.321 946.785,768.378C947.486,766.213 949.128,763.487 951.231,760.358C953.695,756.692 957.66,753.05 961.599,749.153C965.765,745.033 969.899,740.641 972.458,735.745C974.16,732.487 975.535,729.102 976.292,725.732C986.284,729.984 990.047,734.972 990.906,741.91C991.871,749.7 987.453,758.742 977.515,769.159C977.161,769.53 976.982,770.034 977.021,770.545C977.061,771.056 977.315,771.526 977.721,771.839C984.21,776.825 990.739,779.405 994.571,783.542C997.325,786.516 999.952,791.5 998.736,797.026C998.544,797.896 999.016,798.776 999.847,799.098C1001.88,799.888 1003.8,800.572 1005.59,801.149C1005.91,801.255 1006.24,801.357 1006.56,801.456C1011.64,803.024 1015.73,803.685 1018.91,803.485C1020.81,803.364 1022.42,802.937 1023.75,802.234C1031.27,805.822 1039.03,803.812 1043.59,800.718C1044.08,800.382 1044.38,799.822 1044.38,799.224C1044.38,791.119 1037.2,781.968 1031.88,779.269L1031.86,779.259L1031.78,779.22L1031.76,779.214L1031.76,779.212L1031.74,779.202L1031.69,779.184L1031.68,779.181L1031.67,779.177L1031.63,779.162L1031.61,779.153L1031.6,779.151L1031.59,779.147L1031.53,779.128L1031.5,779.121C1021.53,776.327 1016.38,767.559 1015.57,760.834C1015.28,758.48 1016.13,756.294 1017.4,754.087C1018.86,751.564 1020.88,749.04 1022.8,746.33C1026.99,740.409 1030.65,733.663 1028.24,724.592C1026.3,717.326 1021.31,712.298 1014.69,706.964C1008.85,702.257 1001.7,697.257 994.478,689.892C1001.92,684.591 1008.95,678.524 1014.13,672.259C1023.56,660.857 1031.09,649.634 1039.19,637.746C1039.99,636.576 1040.59,635.582 1041.34,634.458C1042.96,634.27 1044.56,634.102 1046.12,633.959C1054.14,633.223 1061.1,633.106 1065.21,634.689C1066.81,635.303 1077.66,642.225 1079.52,643.021C1082.26,644.19 1084.64,644.156 1086.56,643.434C1090.87,645.342 1095.17,644.63 1097.88,642.195C1097.99,642.092 1098.11,641.985 1098.21,641.875C1106.08,641.247 1109.82,631.687 1106.75,624.14C1104.99,619.804 1101.12,615.709 1096.14,613.296C1095.83,613.143 1095.47,613.085 1095.13,613.129C1084.5,614.482 1073.74,613.989 1063.42,612.43C1068.51,601.726 1069.72,591.37 1070.36,583.511C1070.78,578.332 1070.85,574.317 1071.87,572.208C1074.4,566.922 1078.58,562.084 1085.74,558.019C1086.5,557.584 1086.84,556.66 1086.54,555.832C1085.65,553.369 1085.81,550.561 1086.45,547.644C1087.52,542.843 1089.92,537.78 1091.88,533.321C1093.29,530.136 1094.48,527.236 1094.93,524.909C1095.32,522.931 1095.17,521.282 1094.5,520.053C1093.69,518.578 1092.62,517.555 1091.41,516.946C1091.4,516.747 1091.36,516.547 1091.28,516.352C1090.39,514.131 1087.99,512.364 1085.02,511.687C1081.44,510.872 1077.13,511.621 1074.27,514.65C1072.61,515.019 1070.98,515.943 1069.47,517.347C1063.16,523.207 1058.8,537.99 1061.73,549.055C1056.27,558.543 1049.2,570.874 1042.41,580.16C1041.09,576.228 1039.52,572.656 1037.69,569.495C1032.94,561.262 1026.45,555.742 1018.04,553.704L1032.04,548.128C1032.54,547.929 1032.92,547.516 1033.09,547.002C1033.25,546.489 1033.18,545.929 1032.89,545.475C1032.28,544.527 1032.46,543.225 1032.75,541.805C1033.14,539.897 1033.86,537.821 1034.38,535.867C1034.56,535.162 1034.72,534.469 1034.84,533.801C1034.91,533.605 1034.94,533.395 1034.94,533.182C1035.05,532.357 1035.09,531.576 1035.02,530.861C1034.97,530.303 1034.86,529.778 1034.68,529.29C1038.84,525.611 1040.48,520.142 1039.92,513.124C1039.92,513.019 1039.91,512.915 1039.89,512.813C1039.77,511.361 1039.54,509.843 1039.23,508.262C1041.47,506.448 1043.28,502.93 1043.52,500.336C1043.69,498.415 1043.02,496.954 1041.86,496.262C1040.45,495.429 1039.02,494.701 1037.56,494.066L1037.53,494.052L1037.52,494.047C1032.4,491.826 1026.93,490.749 1021.27,490.361C1020.45,487.825 1018.71,486.034 1016.56,484.757C1013.24,482.782 1008.89,482.123 1006.17,481.616C1005.81,481.551 1005.54,481.197 1005.18,480.804C1004.54,480.097 1003.86,479.157 1003.1,478.121C1000.47,474.573 996.855,470.067 990.626,468.459C990.074,468.317 989.488,468.443 989.043,468.8C988.599,469.157 988.349,469.703 988.37,470.273L988.505,474.061C985.712,472.106 982.575,470.682 979.12,469.75C976.532,469.052 973.764,468.631 970.828,468.472C966.875,468.257 962.612,468.518 958.07,469.212C957.356,469.321 956.776,469.844 956.594,470.542C956.413,471.241 956.664,471.98 957.233,472.423L958.78,473.626C952.305,473.443 946.901,476.035 942.05,479.53C935.948,483.925 930.802,489.837 925.351,492.74C923.649,493.646 921.921,494.24 920.108,494.311C919.265,494.343 918.558,494.954 918.402,495.782C918.246,496.61 918.684,497.436 919.457,497.772L927.658,501.339ZM1015.77,521.664C1013.74,520.923 1011.96,520.63 1010.51,521.214C1008.6,521.984 1007.58,524.29 1007.11,528.532C1006.75,531.694 1008.65,534.301 1011.5,534.953C1012.51,535.186 1013.58,535.285 1014.72,535.27C1017.56,532.689 1019.26,527.988 1019.89,525.971L1015.77,521.664ZM1022.9,528.249C1022.27,529.983 1021.24,532.431 1019.81,534.656C1021.56,534.313 1023.51,533.838 1025.72,533.272C1025.59,532.572 1025.38,531.869 1025.08,531.192C1025,531.062 1024.93,530.922 1024.88,530.778C1024.41,529.848 1023.76,528.98 1022.9,528.249ZM1036.12,519.518C1034.67,520.963 1032.91,522.221 1030.88,523.074C1030.87,524.898 1030.58,526.42 1030.02,527.831C1030.49,527.683 1030.95,527.504 1031.42,527.283C1034.01,525.382 1035.51,522.764 1036.12,519.518ZM1027.21,524.093C1025.95,524.273 1024.62,524.295 1023.24,524.124C1024.57,524.843 1025.65,525.747 1026.53,526.766C1026.88,525.943 1027.11,525.076 1027.21,524.093ZM1031.44,531.167C1030.66,531.431 1029.88,531.625 1029.09,531.769C1029.14,531.967 1029.18,532.165 1029.22,532.363L1030.76,531.963L1031.45,531.785C1031.46,531.571 1031.46,531.364 1031.44,531.167ZM991.728,497.241C993.645,493.938 996.464,492.083 999.042,492.016C1001.69,491.947 1006.21,493.836 1009.7,498.12C1007.04,499.613 1003.25,499.884 1000.62,500.001C997.863,500.123 995.006,499.291 991.728,497.241Z"/>
    </g>
</svg>
