<?xml version="1.0" encoding="UTF-8" standalone="no"?>
<!DOCTYPE svg PUBLIC "-//W3C//DTD SVG 1.1//EN" "http://www.w3.org/Graphics/SVG/1.1/DTD/svg11.dtd">
<svg width="100%" height="100%" viewBox="0 0 4000 4000" version="1.1" xmlns="http://www.w3.org/2000/svg" xmlns:xlink="http://www.w3.org/1999/xlink" xml:space="preserve" xmlns:serif="http://www.serif.com/" style="fill-rule:evenodd;clip-rule:evenodd;stroke-linejoin:round;stroke-miterlimit:2;">
    <g id="Silhouette" transform="matrix(7.14524,0,0,7.24241,-9904.4,-1908.92)">
        <path d="M1660.03,359.922C1667.76,334.588 1669.2,305.343 1665.87,273.086C1665.75,271.916 1666.44,270.815 1667.55,270.418C1668.65,270.021 1669.89,270.43 1670.54,271.41C1683.15,290.425 1690.03,316.897 1693.07,341.788C1701.49,325.396 1706.58,305.067 1709.32,283.101C1709.46,281.912 1710.42,280.985 1711.61,280.873C1712.81,280.761 1713.92,281.494 1714.28,282.635C1722.49,308.158 1722.19,336.567 1713.51,367.786C1722.68,356.209 1728.6,343.851 1733.72,330.912C1734.16,329.814 1735.29,329.157 1736.46,329.322C1737.63,329.488 1738.53,330.432 1738.64,331.607C1740.23,348.057 1738.41,367.258 1732.11,390.021C1737.76,384.794 1742.81,378.709 1747.65,372.314C1748.28,371.477 1749.36,371.112 1750.37,371.394C1751.38,371.676 1752.12,372.547 1752.23,373.591C1753.64,387.189 1753.25,400.58 1744.96,415.261C1749.46,414.504 1753.72,413.478 1757.79,412.259C1758.67,411.997 1759.62,412.224 1760.29,412.855C1760.95,413.486 1761.23,414.424 1761.01,415.313C1757.94,427.874 1750.87,439.735 1738.86,450.693C1742.05,449.961 1745.25,449.246 1748.47,448.549C1749.37,448.353 1750.31,448.659 1750.92,449.348C1751.53,450.037 1751.73,451.004 1751.43,451.876C1745.28,469.768 1738.13,488.375 1729.54,508.015C1736.07,509.465 1741.51,508.288 1746.09,505.011C1746.94,504.406 1748.07,504.375 1748.95,504.933C1749.83,505.49 1750.28,506.524 1750.09,507.547C1748.2,517.924 1745.26,528.711 1740.8,540.089C1745.57,544.708 1751.62,547.931 1758.8,549.938C1759.76,550.208 1760.48,551.017 1760.63,552.008C1761.87,559.984 1759.2,568.981 1754.36,578.458C1758.47,582.831 1763.49,586.149 1768.7,589.25C1769.77,589.889 1770.23,591.21 1769.78,592.373C1767.45,598.349 1764.01,603.154 1759.36,606.686L1767.29,610.582C1768,610.932 1768.51,611.594 1768.67,612.372C1768.82,613.15 1768.61,613.957 1768.09,614.555C1760.39,623.379 1756.05,627.792 1743.95,643.456C1740.86,647.461 1740.6,652.076 1739.93,655.92C1739.34,659.323 1738.42,662.231 1736.27,664.254C1732.07,668.224 1726.62,670.842 1720.36,672.592C1756.82,699.856 1795.47,716.24 1835.95,723.542C1836.79,723.694 1837.5,724.256 1837.84,725.04C1838.18,725.824 1838.11,726.726 1837.64,727.444C1827.1,743.743 1809.8,754.225 1783.75,757.047C1783.33,757.092 1782.91,757.034 1782.52,756.877C1760.35,747.961 1736.8,734.662 1712.08,717.531C1701.25,720.97 1695.73,727.492 1695.68,737.27C1695.67,738.394 1694.93,739.382 1693.86,739.704C1688.45,741.322 1685.15,744.995 1683.52,750.287C1683.29,751.032 1682.74,751.631 1682.01,751.914C1675.6,754.41 1669.51,759.046 1662.14,764.78C1659.01,767.215 1657.37,769.571 1656.75,771.927C1655.79,775.569 1657.15,779.07 1658.43,782.397C1659.29,784.646 1660.15,786.826 1660.6,788.912C1661.14,791.437 1661.09,793.848 1660.05,796.135C1656.99,802.851 1654.45,807.587 1644.63,809.154C1643.69,809.304 1642.75,808.919 1642.18,808.154C1641.61,807.389 1641.52,806.372 1641.93,805.515C1643.71,801.865 1644.85,798.461 1645.37,795.381C1645.37,795.12 1645.4,794.866 1645.48,794.626C1646.26,788.968 1644.88,784.459 1641.4,781.59C1637.75,778.571 1633.78,777.122 1630.34,778.281C1626.8,779.471 1624.15,783.304 1622.82,790.053C1622.64,790.946 1622,791.678 1621.14,791.975C1620.28,792.271 1619.33,792.088 1618.64,791.493C1615.78,789.023 1614.47,786.073 1612.95,783.168C1612.8,782.882 1612.65,782.594 1612.52,782.303C1612.2,784.344 1612.06,786.527 1612.04,788.798C1612.03,789.902 1611.31,790.875 1610.26,791.212C1609.21,791.548 1608.06,791.171 1607.41,790.277C1603.6,785.012 1601.64,779.546 1601.25,773.908C1600.07,775.343 1599,776.953 1598.11,778.677C1597.73,779.429 1596.99,779.94 1596.15,780.042C1595.31,780.145 1594.48,779.825 1593.92,779.188C1591.75,776.701 1590.64,773.258 1590.75,769.688C1589.93,770.658 1589.2,771.73 1588.57,772.9C1588.09,773.78 1587.14,774.3 1586.14,774.231C1585.15,774.162 1584.28,773.517 1583.93,772.58C1581.61,766.393 1582.27,760.502 1586.6,756.085C1586.56,750.918 1587.88,747.304 1590.1,745.101C1591.86,743.353 1594.22,742.371 1597.2,742.268C1602.88,742.072 1609.27,745.73 1615.51,749.063C1618.26,750.529 1620.97,751.902 1623.59,752.654C1625.79,753.285 1627.9,753.488 1629.86,752.69C1631.08,752.191 1632.15,751.104 1633.18,749.667C1635.1,747.004 1636.74,743.199 1638.23,738.803C1642.03,727.581 1644.7,712.63 1647.21,701.763C1638.22,689.106 1629.06,677.831 1619.47,669.668C1610.07,661.673 1600.3,656.678 1589.84,656.597C1581.21,658.163 1576.12,664.273 1573.9,674.123C1573.7,675.026 1573.03,675.748 1572.14,676.011C1571.25,676.274 1570.29,676.036 1569.63,675.39C1564.24,670.135 1561.3,664.347 1561.51,657.936C1561.7,651.858 1564.79,645.084 1571.88,637.576C1572.09,636.841 1572.33,636.123 1572.6,635.424C1575.45,628.145 1581.98,622.777 1590.82,619.698C1602.38,615.67 1617.97,615.556 1633.69,619.926L1608.39,447.354L1608.48,446.233C1623.37,397.839 1618.59,350.469 1593.56,304.151C1592.98,303.07 1593.25,301.726 1594.2,300.952C1595.16,300.178 1596.53,300.193 1597.46,300.987C1612.53,313.75 1625.73,333.128 1635.97,362.692C1639.45,345.402 1639.88,329.027 1638.68,313.141C1638.6,311.944 1639.35,310.845 1640.5,310.501C1641.65,310.157 1642.88,310.66 1643.47,311.71C1651.27,325.774 1656.87,341.771 1660.03,359.922ZM1655.2,751.545C1650.88,753.562 1646.51,755.702 1641.31,758.939C1640.77,759.27 1640.66,759.95 1640.6,760.688C1640.55,761.386 1640.61,762.147 1640.76,762.932C1645.52,761.644 1649.78,760.121 1652.58,755.826C1653.57,754.318 1654.43,752.894 1655.2,751.545ZM1650.05,797.865C1649.71,799.403 1649.26,800.996 1648.68,802.639C1650.61,801.663 1651.9,800.337 1652.96,798.737C1652.21,798.227 1651.26,797.929 1650.05,797.865ZM1615.85,775.974C1616.11,777.679 1616.68,779.287 1617.48,780.797C1618.05,781.885 1618.55,782.997 1619.17,784.075C1619.92,781.997 1620.83,780.239 1621.86,778.774C1619.9,777.459 1617.89,776.514 1615.85,775.974ZM1606.3,771.837C1606.31,774.65 1606.77,777.413 1607.73,780.123C1608.18,777.831 1608.83,775.706 1609.7,773.801C1608.59,773.112 1607.46,772.457 1606.3,771.837ZM1596.68,765.981C1595.81,768.062 1595.6,770.311 1596.04,772.31C1597.23,770.649 1598.57,769.139 1599.99,767.828C1598.99,767.111 1597.9,766.484 1596.68,765.981ZM1589.55,760.474C1588.44,761.925 1587.88,763.577 1587.77,765.347C1588.91,764.148 1590.16,763.091 1591.51,762.18C1590.91,761.574 1590.26,761.004 1589.55,760.474ZM1594.51,628.45C1597.54,627.947 1600.33,629.512 1600.73,631.943C1601.14,634.375 1599,636.758 1595.97,637.262C1592.94,637.765 1590.15,636.2 1589.74,633.768C1589.34,631.337 1591.47,628.954 1594.51,628.45"/>
    </g>
</svg>
